<mxfile host="app.diagrams.net" modified="2022-12-12T15:29:12.678Z" agent="5.0 (X11; Ubuntu)" etag="SJfYbMohf45MHXsVDAdR" version="20.6.2" type="github">
  <diagram id="kgpKYQtTHZ0yAKxKKP6v" name="Page-1">
    <mxGraphModel dx="942" dy="640" grid="1" gridSize="10" guides="1" tooltips="1" connect="1" arrows="1" fold="1" page="1" pageScale="1" pageWidth="850" pageHeight="1100" math="0" shadow="0">
      <root>
        <mxCell id="0" />
        <mxCell id="1" parent="0" />
        <mxCell id="xgQsiTBr6rp2fh7jCePE-2" value="Fase 1" style="swimlane;horizontal=0;whiteSpace=wrap;html=1;" vertex="1" parent="1">
          <mxGeometry width="850" height="200" as="geometry" />
        </mxCell>
        <mxCell id="xgQsiTBr6rp2fh7jCePE-9" value="" style="edgeStyle=orthogonalEdgeStyle;rounded=0;orthogonalLoop=1;jettySize=auto;html=1;fontSize=10;" edge="1" parent="xgQsiTBr6rp2fh7jCePE-2" source="xgQsiTBr6rp2fh7jCePE-7" target="xgQsiTBr6rp2fh7jCePE-8">
          <mxGeometry relative="1" as="geometry" />
        </mxCell>
        <mxCell id="xgQsiTBr6rp2fh7jCePE-15" value="" style="edgeStyle=orthogonalEdgeStyle;rounded=0;orthogonalLoop=1;jettySize=auto;html=1;fontSize=10;" edge="1" parent="xgQsiTBr6rp2fh7jCePE-2" source="xgQsiTBr6rp2fh7jCePE-14" target="xgQsiTBr6rp2fh7jCePE-7">
          <mxGeometry relative="1" as="geometry" />
        </mxCell>
        <mxCell id="xgQsiTBr6rp2fh7jCePE-7" value="&lt;font style=&quot;font-size: 10px;&quot;&gt;Crear&lt;br&gt;Instancia&lt;br&gt;&quot;prueba1212&quot;&lt;/font&gt;" style="ellipse;whiteSpace=wrap;html=1;aspect=fixed;strokeColor=#009900;" vertex="1" parent="xgQsiTBr6rp2fh7jCePE-2">
          <mxGeometry x="40" y="90" width="80" height="80" as="geometry" />
        </mxCell>
        <mxCell id="xgQsiTBr6rp2fh7jCePE-11" value="" style="edgeStyle=orthogonalEdgeStyle;rounded=0;orthogonalLoop=1;jettySize=auto;html=1;fontSize=10;" edge="1" parent="xgQsiTBr6rp2fh7jCePE-2" source="xgQsiTBr6rp2fh7jCePE-8" target="xgQsiTBr6rp2fh7jCePE-10">
          <mxGeometry relative="1" as="geometry" />
        </mxCell>
        <mxCell id="xgQsiTBr6rp2fh7jCePE-8" value="&lt;font style=&quot;font-size: 10px;&quot;&gt;Instalar modulos:&lt;br&gt;stock, contacts&lt;/font&gt;" style="ellipse;whiteSpace=wrap;html=1;aspect=fixed;strokeColor=#009900;" vertex="1" parent="xgQsiTBr6rp2fh7jCePE-2">
          <mxGeometry x="190" y="90" width="80" height="80" as="geometry" />
        </mxCell>
        <mxCell id="xgQsiTBr6rp2fh7jCePE-47" value="" style="edgeStyle=orthogonalEdgeStyle;rounded=0;orthogonalLoop=1;jettySize=auto;html=1;fontSize=10;" edge="1" parent="xgQsiTBr6rp2fh7jCePE-2" source="xgQsiTBr6rp2fh7jCePE-10" target="xgQsiTBr6rp2fh7jCePE-46">
          <mxGeometry relative="1" as="geometry" />
        </mxCell>
        <mxCell id="xgQsiTBr6rp2fh7jCePE-10" value="&lt;font style=&quot;font-size: 10px;&quot;&gt;Configurar stock&lt;/font&gt;" style="ellipse;whiteSpace=wrap;html=1;aspect=fixed;strokeColor=#009900;" vertex="1" parent="xgQsiTBr6rp2fh7jCePE-2">
          <mxGeometry x="340" y="90" width="80" height="80" as="geometry" />
        </mxCell>
        <mxCell id="xgQsiTBr6rp2fh7jCePE-14" value="&lt;font style=&quot;font-size: 10px;&quot;&gt;Acceso a Moises Sira&lt;/font&gt;" style="whiteSpace=wrap;html=1;" vertex="1" parent="xgQsiTBr6rp2fh7jCePE-2">
          <mxGeometry x="40" y="20" width="80" height="40" as="geometry" />
        </mxCell>
        <mxCell id="xgQsiTBr6rp2fh7jCePE-46" value="&lt;font style=&quot;font-size: 10px;&quot;&gt;Copiar o generar grupos y accesos para los usuarios.&lt;/font&gt;&amp;nbsp; " style="ellipse;whiteSpace=wrap;html=1;aspect=fixed;" vertex="1" parent="xgQsiTBr6rp2fh7jCePE-2">
          <mxGeometry x="500" y="90" width="80" height="80" as="geometry" />
        </mxCell>
        <mxCell id="xgQsiTBr6rp2fh7jCePE-3" value="Fase 2: Inventario" style="swimlane;horizontal=0;whiteSpace=wrap;html=1;" vertex="1" parent="1">
          <mxGeometry y="200" width="850" height="200" as="geometry" />
        </mxCell>
        <mxCell id="xgQsiTBr6rp2fh7jCePE-17" value="&lt;font style=&quot;font-size: 10px;&quot;&gt;Desarrollo de personalizaciÃ³n del inventario&lt;/font&gt;" style="ellipse;whiteSpace=wrap;html=1;aspect=fixed;" vertex="1" parent="xgQsiTBr6rp2fh7jCePE-3">
          <mxGeometry x="40" y="90" width="80" height="80" as="geometry" />
        </mxCell>
        <mxCell id="xgQsiTBr6rp2fh7jCePE-19" value="&lt;font style=&quot;font-size: 10px;&quot;&gt;Desarrollo del menu de Autores y Editoriales&lt;/font&gt;" style="ellipse;whiteSpace=wrap;html=1;aspect=fixed;" vertex="1" parent="xgQsiTBr6rp2fh7jCePE-3">
          <mxGeometry x="190" y="90" width="80" height="80" as="geometry" />
        </mxCell>
        <mxCell id="xgQsiTBr6rp2fh7jCePE-16" value="" style="edgeStyle=orthogonalEdgeStyle;rounded=0;orthogonalLoop=1;jettySize=auto;html=1;fontSize=10;" edge="1" parent="xgQsiTBr6rp2fh7jCePE-3" source="xgQsiTBr6rp2fh7jCePE-17" target="xgQsiTBr6rp2fh7jCePE-19">
          <mxGeometry relative="1" as="geometry" />
        </mxCell>
        <mxCell id="xgQsiTBr6rp2fh7jCePE-28" value="" style="edgeStyle=orthogonalEdgeStyle;rounded=0;orthogonalLoop=1;jettySize=auto;html=1;fontSize=10;" edge="1" parent="xgQsiTBr6rp2fh7jCePE-3" source="xgQsiTBr6rp2fh7jCePE-20" target="xgQsiTBr6rp2fh7jCePE-27">
          <mxGeometry relative="1" as="geometry" />
        </mxCell>
        <mxCell id="xgQsiTBr6rp2fh7jCePE-20" value="&lt;font style=&quot;font-size: 10px;&quot;&gt;Desarrollo del menu de &quot;Configuraciones&quot;&lt;br&gt;&lt;/font&gt;" style="ellipse;whiteSpace=wrap;html=1;aspect=fixed;" vertex="1" parent="xgQsiTBr6rp2fh7jCePE-3">
          <mxGeometry x="340" y="90" width="80" height="80" as="geometry" />
        </mxCell>
        <mxCell id="xgQsiTBr6rp2fh7jCePE-18" value="" style="edgeStyle=orthogonalEdgeStyle;rounded=0;orthogonalLoop=1;jettySize=auto;html=1;fontSize=10;" edge="1" parent="xgQsiTBr6rp2fh7jCePE-3" source="xgQsiTBr6rp2fh7jCePE-19" target="xgQsiTBr6rp2fh7jCePE-20">
          <mxGeometry relative="1" as="geometry" />
        </mxCell>
        <mxCell id="xgQsiTBr6rp2fh7jCePE-22" value="" style="edgeStyle=orthogonalEdgeStyle;rounded=0;orthogonalLoop=1;jettySize=auto;html=1;fontSize=10;" edge="1" parent="xgQsiTBr6rp2fh7jCePE-3" source="xgQsiTBr6rp2fh7jCePE-21" target="xgQsiTBr6rp2fh7jCePE-17">
          <mxGeometry relative="1" as="geometry" />
        </mxCell>
        <mxCell id="xgQsiTBr6rp2fh7jCePE-21" value="&lt;font style=&quot;font-size: 10px;&quot;&gt;Asignado a Joel Rivas&lt;/font&gt;" style="whiteSpace=wrap;html=1;" vertex="1" parent="xgQsiTBr6rp2fh7jCePE-3">
          <mxGeometry x="40" y="10" width="80" height="40" as="geometry" />
        </mxCell>
        <mxCell id="xgQsiTBr6rp2fh7jCePE-24" value="" style="edgeStyle=orthogonalEdgeStyle;rounded=0;orthogonalLoop=1;jettySize=auto;html=1;fontSize=10;" edge="1" parent="xgQsiTBr6rp2fh7jCePE-3" source="xgQsiTBr6rp2fh7jCePE-23" target="xgQsiTBr6rp2fh7jCePE-19">
          <mxGeometry relative="1" as="geometry" />
        </mxCell>
        <mxCell id="xgQsiTBr6rp2fh7jCePE-23" value="&lt;font style=&quot;font-size: 10px;&quot;&gt;Asignado a Moises Sira&lt;br&gt;&lt;/font&gt;" style="whiteSpace=wrap;html=1;" vertex="1" parent="xgQsiTBr6rp2fh7jCePE-3">
          <mxGeometry x="190" y="10" width="80" height="40" as="geometry" />
        </mxCell>
        <mxCell id="xgQsiTBr6rp2fh7jCePE-26" value="" style="edgeStyle=orthogonalEdgeStyle;rounded=0;orthogonalLoop=1;jettySize=auto;html=1;fontSize=10;" edge="1" parent="xgQsiTBr6rp2fh7jCePE-3" source="xgQsiTBr6rp2fh7jCePE-25" target="xgQsiTBr6rp2fh7jCePE-20">
          <mxGeometry relative="1" as="geometry" />
        </mxCell>
        <mxCell id="xgQsiTBr6rp2fh7jCePE-25" value="&lt;font style=&quot;font-size: 10px;&quot;&gt;Asignado a Moises Sira y Joel Rivas&lt;br&gt;&lt;/font&gt;" style="whiteSpace=wrap;html=1;" vertex="1" parent="xgQsiTBr6rp2fh7jCePE-3">
          <mxGeometry x="340" y="10" width="80" height="40" as="geometry" />
        </mxCell>
        <mxCell id="xgQsiTBr6rp2fh7jCePE-43" value="" style="edgeStyle=orthogonalEdgeStyle;rounded=0;orthogonalLoop=1;jettySize=auto;html=1;fontSize=10;" edge="1" parent="xgQsiTBr6rp2fh7jCePE-3" source="xgQsiTBr6rp2fh7jCePE-27" target="xgQsiTBr6rp2fh7jCePE-42">
          <mxGeometry relative="1" as="geometry" />
        </mxCell>
        <mxCell id="xgQsiTBr6rp2fh7jCePE-27" value="&lt;font style=&quot;font-size: 10px;&quot;&gt;&lt;font style=&quot;font-size: 10px;&quot;&gt;Validaciones de los campos y datos creados&lt;/font&gt;.&lt;/font&gt;" style="ellipse;whiteSpace=wrap;html=1;aspect=fixed;" vertex="1" parent="xgQsiTBr6rp2fh7jCePE-3">
          <mxGeometry x="500" y="90" width="80" height="80" as="geometry" />
        </mxCell>
        <mxCell id="xgQsiTBr6rp2fh7jCePE-42" value="&lt;font style=&quot;font-size: 10px;&quot;&gt;Pruebas:&lt;br&gt;Desarrolladores,&lt;br&gt;QA,&lt;br&gt;Funcional.&lt;br&gt;&lt;/font&gt;" style="ellipse;whiteSpace=wrap;html=1;aspect=fixed;" vertex="1" parent="xgQsiTBr6rp2fh7jCePE-3">
          <mxGeometry x="660" y="90" width="80" height="80" as="geometry" />
        </mxCell>
        <mxCell id="xgQsiTBr6rp2fh7jCePE-45" value="" style="edgeStyle=orthogonalEdgeStyle;rounded=0;orthogonalLoop=1;jettySize=auto;html=1;fontSize=10;" edge="1" parent="xgQsiTBr6rp2fh7jCePE-3" source="xgQsiTBr6rp2fh7jCePE-44" target="xgQsiTBr6rp2fh7jCePE-27">
          <mxGeometry relative="1" as="geometry" />
        </mxCell>
        <mxCell id="xgQsiTBr6rp2fh7jCePE-44" value="&lt;font style=&quot;font-size: 10px;&quot;&gt;Asignado a Moises Sira y Joel Rivas&lt;br&gt;&lt;/font&gt;" style="whiteSpace=wrap;html=1;" vertex="1" parent="xgQsiTBr6rp2fh7jCePE-3">
          <mxGeometry x="500" y="10" width="80" height="40" as="geometry" />
        </mxCell>
        <mxCell id="xgQsiTBr6rp2fh7jCePE-4" value="Fase 3: Usuarios (Miembros)" style="swimlane;horizontal=0;whiteSpace=wrap;html=1;" vertex="1" parent="1">
          <mxGeometry y="400" width="850" height="200" as="geometry" />
        </mxCell>
        <mxCell id="xgQsiTBr6rp2fh7jCePE-29" value="&lt;font style=&quot;font-size: 10px;&quot;&gt;Desarrollo del menu de Usuarios (Biblioteca)&lt;br&gt;&lt;/font&gt;" style="ellipse;whiteSpace=wrap;html=1;aspect=fixed;" vertex="1" parent="xgQsiTBr6rp2fh7jCePE-4">
          <mxGeometry x="35" y="100" width="80" height="80" as="geometry" />
        </mxCell>
        <mxCell id="xgQsiTBr6rp2fh7jCePE-30" value="&lt;font style=&quot;font-size: 10px;&quot;&gt;AÃ±adir campos personalizados al modulo &quot;contacts&quot;&lt;/font&gt;" style="ellipse;whiteSpace=wrap;html=1;aspect=fixed;" vertex="1" parent="xgQsiTBr6rp2fh7jCePE-4">
          <mxGeometry x="185" y="100" width="80" height="80" as="geometry" />
        </mxCell>
        <mxCell id="xgQsiTBr6rp2fh7jCePE-31" value="" style="edgeStyle=orthogonalEdgeStyle;rounded=0;orthogonalLoop=1;jettySize=auto;html=1;fontSize=10;" edge="1" parent="xgQsiTBr6rp2fh7jCePE-4" source="xgQsiTBr6rp2fh7jCePE-29" target="xgQsiTBr6rp2fh7jCePE-30">
          <mxGeometry relative="1" as="geometry" />
        </mxCell>
        <mxCell id="xgQsiTBr6rp2fh7jCePE-33" value="&lt;font style=&quot;font-size: 10px;&quot;&gt;AÃ±adir las configuraciones de los contactos al menu de configuraciones.&lt;/font&gt;" style="ellipse;whiteSpace=wrap;html=1;aspect=fixed;" vertex="1" parent="xgQsiTBr6rp2fh7jCePE-4">
          <mxGeometry x="335" y="100" width="80" height="80" as="geometry" />
        </mxCell>
        <mxCell id="xgQsiTBr6rp2fh7jCePE-34" value="" style="edgeStyle=orthogonalEdgeStyle;rounded=0;orthogonalLoop=1;jettySize=auto;html=1;fontSize=10;" edge="1" parent="xgQsiTBr6rp2fh7jCePE-4" source="xgQsiTBr6rp2fh7jCePE-30" target="xgQsiTBr6rp2fh7jCePE-33">
          <mxGeometry relative="1" as="geometry" />
        </mxCell>
        <mxCell id="xgQsiTBr6rp2fh7jCePE-35" value="" style="edgeStyle=orthogonalEdgeStyle;rounded=0;orthogonalLoop=1;jettySize=auto;html=1;fontSize=10;" edge="1" parent="xgQsiTBr6rp2fh7jCePE-4" source="xgQsiTBr6rp2fh7jCePE-36" target="xgQsiTBr6rp2fh7jCePE-29">
          <mxGeometry relative="1" as="geometry" />
        </mxCell>
        <mxCell id="xgQsiTBr6rp2fh7jCePE-36" value="&lt;font style=&quot;font-size: 10px;&quot;&gt;Asignado a Moises Sira&lt;br&gt;&lt;/font&gt;" style="whiteSpace=wrap;html=1;" vertex="1" parent="xgQsiTBr6rp2fh7jCePE-4">
          <mxGeometry x="35" y="20" width="80" height="40" as="geometry" />
        </mxCell>
        <mxCell id="xgQsiTBr6rp2fh7jCePE-37" value="" style="edgeStyle=orthogonalEdgeStyle;rounded=0;orthogonalLoop=1;jettySize=auto;html=1;fontSize=10;" edge="1" parent="xgQsiTBr6rp2fh7jCePE-4" source="xgQsiTBr6rp2fh7jCePE-38" target="xgQsiTBr6rp2fh7jCePE-30">
          <mxGeometry relative="1" as="geometry" />
        </mxCell>
        <mxCell id="xgQsiTBr6rp2fh7jCePE-38" value="&lt;font style=&quot;font-size: 10px;&quot;&gt;Asignado a Moises Sira&lt;br&gt;&lt;/font&gt;" style="whiteSpace=wrap;html=1;" vertex="1" parent="xgQsiTBr6rp2fh7jCePE-4">
          <mxGeometry x="185" y="20" width="80" height="40" as="geometry" />
        </mxCell>
        <mxCell id="xgQsiTBr6rp2fh7jCePE-39" value="" style="edgeStyle=orthogonalEdgeStyle;rounded=0;orthogonalLoop=1;jettySize=auto;html=1;fontSize=10;" edge="1" parent="xgQsiTBr6rp2fh7jCePE-4" source="xgQsiTBr6rp2fh7jCePE-40" target="xgQsiTBr6rp2fh7jCePE-33">
          <mxGeometry relative="1" as="geometry" />
        </mxCell>
        <mxCell id="xgQsiTBr6rp2fh7jCePE-40" value="&lt;font style=&quot;font-size: 10px;&quot;&gt;Asignado a Moises Sira y Joel Rivas&lt;br&gt;&lt;/font&gt;" style="whiteSpace=wrap;html=1;" vertex="1" parent="xgQsiTBr6rp2fh7jCePE-4">
          <mxGeometry x="335" y="20" width="80" height="40" as="geometry" />
        </mxCell>
        <mxCell id="xgQsiTBr6rp2fh7jCePE-41" value="&lt;font style=&quot;font-size: 10px;&quot;&gt;Pruebas:&lt;br&gt;Desarrolladores,&lt;br&gt;QA,&lt;br&gt;Funcional.&lt;br&gt;&lt;/font&gt;" style="ellipse;whiteSpace=wrap;html=1;aspect=fixed;" vertex="1" parent="xgQsiTBr6rp2fh7jCePE-4">
          <mxGeometry x="495" y="100" width="80" height="80" as="geometry" />
        </mxCell>
        <mxCell id="xgQsiTBr6rp2fh7jCePE-32" value="" style="edgeStyle=orthogonalEdgeStyle;rounded=0;orthogonalLoop=1;jettySize=auto;html=1;fontSize=10;" edge="1" parent="xgQsiTBr6rp2fh7jCePE-4" source="xgQsiTBr6rp2fh7jCePE-33" target="xgQsiTBr6rp2fh7jCePE-41">
          <mxGeometry relative="1" as="geometry" />
        </mxCell>
      </root>
    </mxGraphModel>
  </diagram>
</mxfile>
